<svg width="201" height="201" viewBox="0 0 201 201" fill="none" xmlns="http://www.w3.org/2000/svg">
<path d="M92.125 90.2155C92.125 87.2005 90.3495 84.7132 88.6745 83.0298C86.7194 81.1542 84.4738 79.6072 82.0247 78.4487C77.184 76.0785 70.6515 74.4538 65.1407 75.9529C60.3837 77.2594 58.5161 81.7317 57.8042 84.5457L56.6652 88.9844C56.4356 89.8892 56.5149 90.8448 56.8905 91.6994C57.2661 92.554 57.9164 93.2586 58.7383 93.7012C59.5601 94.1439 60.5063 94.2993 61.4265 94.1427C62.3468 93.9861 63.1883 93.5265 63.8175 92.8369C65.7689 90.6929 68.7252 89.78 72.8541 90.1067C77.0081 90.4417 81.7316 91.9994 86.2039 94.0262C86.8416 94.3162 87.542 94.4416 88.2408 94.3909C88.9396 94.3401 89.6145 94.1149 90.2037 93.7357C90.7929 93.3565 91.2775 92.8356 91.6131 92.2206C91.9488 91.6056 92.1248 90.9162 92.125 90.2155ZM144.335 88.9844L143.196 84.5624V84.5457C142.484 81.7233 140.616 77.2594 135.859 75.9529C130.34 74.4454 123.816 76.0785 118.975 78.4487C116.529 79.608 114.286 81.155 112.334 83.0298C110.65 84.7132 108.875 87.1922 108.875 90.2155C108.875 90.9162 109.051 91.6056 109.387 92.2206C109.723 92.8356 110.207 93.3565 110.796 93.7357C111.385 94.1149 112.06 94.3401 112.759 94.3909C113.458 94.4416 114.158 94.3162 114.796 94.0262C119.268 91.9994 123.992 90.4333 128.146 90.1067C132.275 89.78 135.231 90.6929 137.182 92.8453C137.812 93.5349 138.653 93.9945 139.573 94.1511C140.494 94.3077 141.44 94.1523 142.262 93.7096C143.084 93.2669 143.734 92.5623 144.11 91.7078C144.485 90.8532 144.564 89.8976 144.335 88.9928" fill="#6CBF69"/>
<path fill-rule="evenodd" clip-rule="evenodd" d="M146.06 116.873C150.934 128.263 143.882 138.916 135.298 145.516C126.37 152.383 113.506 157.031 100.5 157.031C87.4936 157.031 74.6296 152.392 65.7019 145.516C57.1175 138.916 50.0657 128.263 54.9484 116.873C56.5731 113.063 60.4172 111.371 64.3619 111.429C66.866 111.455 69.9731 112.066 72.9379 112.644L73.4822 112.753C79.9561 114.026 88.775 115.751 100.5 115.751C109.821 115.751 118.942 114.436 128.054 112.652C131.027 112.066 134.134 111.455 136.638 111.421C140.583 111.371 144.427 113.063 146.052 116.865M129.829 125.089C123.246 126.387 113.448 128.305 100.492 128.305C87.5439 128.305 77.7367 126.379 71.154 125.089L70.752 125.005C69.1669 124.685 67.5753 124.397 65.9782 124.143C65.8694 127.258 67.804 131.287 73.3482 135.558C80.065 140.725 90.2322 144.46 100.492 144.46C110.751 144.46 120.918 140.725 127.627 135.558C133.179 131.287 135.114 127.267 135.013 124.143C133.807 124.319 132.124 124.645 129.829 125.089Z" fill="#6CBF69"/>
<path fill-rule="evenodd" clip-rule="evenodd" d="M100.5 18.8438C55.4006 18.8438 18.8438 55.4006 18.8438 100.5C18.8438 145.599 55.4006 182.156 100.5 182.156C145.599 182.156 182.156 145.599 182.156 100.5C182.156 55.4006 145.599 18.8438 100.5 18.8438ZM31.4062 100.5C31.4062 82.1752 38.6857 64.6009 51.6433 51.6433C64.6009 38.6857 82.1752 31.4062 100.5 31.4062C118.825 31.4062 136.399 38.6857 149.357 51.6433C162.314 64.6009 169.594 82.1752 169.594 100.5C169.594 118.825 162.314 136.399 149.357 149.357C136.399 162.314 118.825 169.594 100.5 169.594C82.1752 169.594 64.6009 162.314 51.6433 149.357C38.6857 136.399 31.4062 118.825 31.4062 100.5Z" fill="#6CBF69"/>
</svg>
