<svg width="215" height="215" viewBox="0 0 215 215" fill="none" xmlns="http://www.w3.org/2000/svg">
<path d="M107.5 17.9167C156.977 17.9167 197.083 58.0232 197.083 107.5C197.083 156.977 156.977 197.083 107.5 197.083C58.0231 197.083 17.9167 156.977 17.9167 107.5C17.9167 58.0232 58.0231 17.9167 107.5 17.9167ZM107.5 35.8334C88.4928 35.8334 70.2641 43.384 56.824 56.8241C43.3839 70.2642 35.8333 88.4929 35.8333 107.5C35.8333 126.507 43.3839 144.736 56.824 158.176C70.2641 171.616 88.4928 179.167 107.5 179.167C126.507 179.167 144.736 171.616 158.176 158.176C171.616 144.736 179.167 126.507 179.167 107.5C179.167 88.4929 171.616 70.2642 158.176 56.8241C144.736 43.384 126.507 35.8334 107.5 35.8334ZM107.5 53.7501C109.694 53.7504 111.812 54.5559 113.452 56.014C115.091 57.472 116.139 59.4812 116.396 61.6603L116.458 62.7084V103.791L140.709 128.042C142.315 129.654 143.248 131.817 143.317 134.092C143.387 136.367 142.588 138.583 141.083 140.29C139.577 141.997 137.479 143.067 135.213 143.283C132.947 143.499 130.684 142.844 128.884 141.452L128.041 140.709L101.166 113.834C99.7742 112.44 98.88 110.627 98.6223 108.674L98.5417 107.5V62.7084C98.5417 60.3325 99.4855 58.0539 101.166 56.3739C102.846 54.6939 105.124 53.7501 107.5 53.7501Z" fill="#6CBF69"/>
</svg>
