<svg width="203" height="207" viewBox="0 0 203 207" fill="none" xmlns="http://www.w3.org/2000/svg">
<path fill-rule="evenodd" clip-rule="evenodd" d="M101.5 23.7187C89.9392 23.7209 78.6515 27.3019 69.13 33.9878C59.6084 40.6737 52.3016 50.1496 48.1761 61.1619C44.0507 72.1743 43.3009 84.2043 46.026 95.6607C48.751 107.117 54.8226 117.46 63.4375 125.321L63.4629 125.356C68.1741 129.66 71.752 132.92 74.3064 135.318C76.7171 137.56 78.6202 139.406 79.6267 140.665L79.7282 140.794C81.606 143.149 83.23 145.202 84.3127 147.66C85.3869 150.109 85.7929 152.723 86.2665 155.716L86.2919 155.888C86.5372 157.423 86.6302 159.304 86.6725 161.719H116.327C116.37 159.304 116.463 157.423 116.708 155.888L116.733 155.716C117.207 152.723 117.613 150.109 118.687 147.66C119.77 145.202 121.394 143.149 123.272 140.794L123.373 140.665C124.38 139.406 126.283 137.56 128.694 135.318C131.248 132.92 134.826 129.66 139.537 125.356L139.571 125.321C148.186 117.459 154.258 107.116 156.983 95.6586C159.708 84.2014 158.957 72.1707 154.831 61.1579C150.704 50.1451 143.396 40.6693 133.873 33.9841C124.35 27.2989 113.061 23.7192 101.5 23.7187ZM116.251 174.656H86.7486C86.7825 175.547 86.8276 176.344 86.884 177.045C87.0532 178.986 87.3492 179.693 87.5522 180.047C88.1084 181.028 88.9076 181.843 89.8698 182.41C90.2081 182.617 90.9101 182.91 92.8133 183.091C94.801 183.273 97.4315 183.281 101.5 183.281C105.568 183.281 108.199 183.281 110.187 183.091C112.09 182.919 112.783 182.617 113.13 182.41C114.092 181.843 114.892 181.028 115.448 180.047C115.651 179.702 115.947 178.986 116.116 177.045C116.172 176.344 116.217 175.547 116.251 174.656ZM31.7187 81.9374C31.7196 70.0693 34.6316 58.3899 40.1896 47.9625C45.7476 37.5351 53.7751 28.6908 63.5413 22.235C73.3075 15.7791 84.5021 11.9167 96.1061 10.9993C107.71 10.0819 119.355 12.1387 129.98 16.9825C140.605 21.8263 149.874 29.3031 156.941 38.7324C164.009 48.1617 168.652 59.2439 170.447 70.97C172.241 82.6962 171.131 94.6939 167.217 105.871C163.304 117.048 156.71 127.049 148.038 134.964C144.429 138.24 140.837 141.535 137.262 144.848C135.999 146.032 134.758 147.239 133.54 148.471L133.236 148.807C131.036 151.576 130.554 152.292 130.275 152.938C129.988 153.585 129.785 154.422 129.235 157.941C129.015 159.33 128.99 161.71 128.99 168.187V168.463C128.99 172.258 128.99 175.536 128.753 178.21C128.499 181.056 127.941 183.868 126.444 186.516C124.773 189.468 122.369 191.919 119.474 193.623C116.877 195.149 114.12 195.718 111.337 195.977C108.698 196.219 105.492 196.219 101.779 196.219H101.229C97.5077 196.219 94.2935 196.219 91.6714 195.977C88.8802 195.718 86.1227 195.149 83.526 193.623C80.6311 191.919 78.2272 189.468 76.5564 186.516C75.0592 183.868 74.501 181.056 74.2472 178.218C74.0104 175.527 74.0104 172.258 74.0104 168.472V168.187C74.0104 161.719 73.985 159.33 73.7651 157.941C73.2153 154.422 73.0039 153.585 72.7247 152.938C72.4456 152.292 71.9635 151.576 69.7643 148.798L69.6797 148.712L69.4598 148.462L68.6394 147.625C67.6849 146.686 66.7177 145.76 65.7382 144.848C63.2429 142.519 59.7158 139.302 54.9622 134.964C47.6403 128.296 41.7841 120.125 37.7783 110.986C33.7724 101.847 31.7074 91.9476 31.7187 81.9374ZM83.6698 115.144C84.3912 114.718 85.1877 114.442 86.0139 114.33C86.8401 114.219 87.6798 114.274 88.4849 114.494C89.29 114.713 90.0449 115.092 90.7063 115.609C91.3677 116.126 91.9227 116.771 92.3396 117.507C93.267 119.148 94.602 120.511 96.2101 121.458C97.8182 122.406 99.6427 122.905 101.5 122.905C103.357 122.905 105.182 122.406 106.79 121.458C108.398 120.511 109.733 119.148 110.66 117.507C111.078 116.771 111.634 116.127 112.296 115.61C112.958 115.093 113.713 114.715 114.518 114.496C115.324 114.277 116.164 114.221 116.99 114.333C117.816 114.445 118.613 114.722 119.334 115.148C120.056 115.574 120.688 116.14 121.195 116.815C121.701 117.49 122.073 118.261 122.288 119.082C122.502 119.903 122.556 120.76 122.447 121.602C122.337 122.445 122.065 123.257 121.648 123.993C118.612 129.33 113.663 133.258 107.844 134.947V146.625C107.844 148.341 107.175 149.986 105.986 151.199C104.796 152.412 103.182 153.094 101.5 153.094C99.8175 153.094 98.204 152.412 97.0143 151.199C95.8246 149.986 95.1562 148.341 95.1562 146.625V134.947C89.3367 133.258 84.3876 129.33 81.3522 123.993C80.9349 123.257 80.6638 122.445 80.5544 121.603C80.445 120.76 80.4994 119.904 80.7147 119.083C80.9299 118.262 81.3017 117.492 81.8087 116.818C82.3158 116.143 82.9482 115.569 83.6698 115.144Z" fill="#6CBF69"/>
</svg>
